{"title":"The Mummy Returns(2001)MPEG-4(720p)[DaScubaDude]","uid":13220836,"size":1293075749,"categoryP":"video","categoryS":"movies","magnet":"?xt=urn:btih:213f73a777ada6f425f5f26a5ce0ae041ddf2f81&amp;dn=The+Mummy+Returns%282001%29MPEG-4%28720p%29%5BDaScubaDude%5D&amp;tr=udp%3A%2F%2Ftracker.leechers-paradise.org%3A6969&amp;tr=udp%3A%2F%2Fzer0day.ch%3A1337&amp;tr=udp%3A%2F%2Fopen.demonii.com%3A1337&amp;tr=udp%3A%2F%2Ftracker.coppersurfer.tk%3A6969&amp;tr=udp%3A%2F%2Fexodus.desync.com%3A6969","seeders":2,"leechers":0,"uploader":"dascuba","files":1,"time":1452773699,"description":"The Mummy Returns (2001)\r\nPG-13  |  130 min  |  Action, Adventure, Fantasy  |  4 May 2001 (USA)\r\n6.3 Your rating:   -/10   Ratings: 6.3/10 from 237,418 users   Metascore: 48/100\r\nReviews: 887 user | 201 critic | 31 from Metacritic.com\r\nThe mummified body of Imhotep is shipped to a museum in London, where he once again wakes and begins his campaign of rage and terror.\r\n\r\nDirector: Stephen Sommers\r\nWriter: Stephen Sommers\r\nStars: Brendan Fraser, Rachel Weisz, John Hannah\r\n\r\nGeneral\r\nComplete name                            :The Mummy ReturnsMUMMYRETURNS_Title1.mp4\r\nFormat                                   : MPEG-4\r\nFormat profile                           : Base Media\r\nCodec ID                                 : isom\r\nFile size                                : 1.20 GiB\r\nDuration                                 : 2h 9mn\r\nOverall bit rate                         : 1 331 Kbps\r\nMovie name                               : MUMMYRETURNS\r\nGenre                                    : Adventure\r\nWriting application                      : Lavf54.6.100\r\n\r\nVideo\r\nID                                       : 1\r\nFormat                                   : AVC\r\nFormat/Info                              : Advanced Video Codec\r\nFormat profile                           :   \r\nFormat settings, CABAC                   : No\r\nFormat settings, ReFrames                : 6 frames\r\nCodec ID                                 : avc1\r\nCodec ID/Info                            : Advanced Video Coding\r\nDuration                                 : 2h 9mn\r\nBit rate                                 : 1 197 Kbps\r\nWidth                                    : 720 pixels\r\nHeight                                   : 404 pixels\r\nDisplay aspect ratio                     : 16:9\r\nFrame rate mode                          : Constant\r\nFrame rate                               : 29.970 fps\r\nColor space                              : YUV\r\nChroma subsampling                       : 4:2:0\r\nBit depth                                : 8 bits\r\nScan type                                : Progressive\r\nBits/(Pixel*Frame)                       : 0.137\r\nStream size                              : 1.08 GiB (90%)\r\n\r\nAudio\r\nID                                       : 2\r\nFormat                                   : AAC\r\nFormat/Info                              : Advanced Audio Codec\r\nFormat profile                           : LC\r\nCodec ID                                 : 40\r\nDuration                                 : 2h 9mn\r\nBit rate mode                            : Constant\r\nBit rate                                 : 128 Kbps\r\nChannel(s)                               : 2 channels\r\nChannel positions                        : Front: L R\r\nSampling rate                            : 44.1 KHz\r\nCompression mode                         : Lossy\r\nStream size                              : 118 MiB (10%)","torrent":{"xt":"urn:btih:213f73a777ada6f425f5f26a5ce0ae041ddf2f81","amp;dn":"The+Mummy+Returns%282001%29MPEG-4%28720p%29%5BDaScubaDude%5D","amp;tr":["udp%3A%2F%2Ftracker.leechers-paradise.org%3A6969","udp%3A%2F%2Fzer0day.ch%3A1337","udp%3A%2F%2Fopen.demonii.com%3A1337","udp%3A%2F%2Ftracker.coppersurfer.tk%3A6969","udp%3A%2F%2Fexodus.desync.com%3A6969"],"infoHash":"213f73a777ada6f425f5f26a5ce0ae041ddf2f81","infoHashBuffer":{"type":"Buffer","data":[33,63,115,167,119,173,166,244,37,245,242,106,92,224,174,4,29,223,47,129]},"announce":[],"urlList":[]}}